# xmcd CD database file
#
# Track frame offsets:
#	150
#	33288
#	46533
#	60520
#	74974
#	86207
#	96464
#	117781
#	132955
#	146235
#	159821
#	188375
#	208003
#	234519
#	248028
#	270532
#	282217
#	292840
#
# Disc length: 4097 seconds
#
# Revision: 0
# Processed by: cddbd v1.5.2PL0 Copyright (c) Steve Scherf et al.
# Submitted via: CDex 1.50
#
DISCID=010fff12
DTITLE=Louis Armstrong - (What a) wonderfull world
DYEAR=1900
DGENRE=Jazz
TTITLE0=(What a) wonderfull world
TTITLE1=High Cociety
TTITLE2=Now you has Jazz
TTITLE3=Mack the knife
TTITLE4=Jeepers Creepers
TTITLE5=Hello Dolly!
TTITLE6=C' est ci bon
TTITLE7=Down by thw riverside
TTITLE8=Tiger rag
TTITLE9=When the saints go marchin' in
TTITLE10=Skokiaan
TTITLE11=On the sunny of the street
TTITLE12=Blueberry hill
TTITLE13=Moon river
TTITLE14=Saint Louis blues
TTITLE15=Basin' street blues
TTITLE16=Mahagony hall stomp
TTITLE17=New Orleans function
EXTD=
EXTT0=
EXTT1=
EXTT2=
EXTT3=
EXTT4=
EXTT5=
EXTT6=
EXTT7=
EXTT8=
EXTT9=
EXTT10=
EXTT11=
EXTT12=
EXTT13=
EXTT14=
EXTT15=
EXTT16=
EXTT17=
PLAYORDER=
